{
  "asset": {
    "version": "2.0",
    "generator": "Astral ART-006B National Mall panel blockout 1"
  },
  "scene": 0,
  "scenes": [
    {
      "name": "National_Mall_Core_Panel_Module",
      "nodes": [
        0,
        1,
        2,
        3,
        4,
        5,
        6
      ]
    }
  ],
  "nodes": [
    {
      "name": "Lawn",
      "mesh": 0,
      "translation": [
        0,
        -0.05,
        0
      ],
      "scale": [
        51.816,
        0.1,
        137.16
      ]
    },
    {
      "name": "Path_Longitudinal_PosX",
      "mesh": 1,
      "translation": [
        31.242,
        -0.04,
        0
      ],
      "scale": [
        10.668,
        0.08,
        137.16
      ]
    },
    {
      "name": "Path_Longitudinal_NegX",
      "mesh": 1,
      "translation": [
        -31.242,
        -0.04,
        0
      ],
      "scale": [
        10.668,
        0.08,
        137.16
      ]
    },
    {
      "name": "Path_End_PosZ",
      "mesh": 1,
      "translation": [
        0,
        -0.04,
        73.914
      ],
      "scale": [
        73.152,
        0.08,
        10.668
      ]
    },
    {
      "name": "Path_End_NegZ",
      "mesh": 1,
      "translation": [
        0,
        -0.04,
        -73.914
      ],
      "scale": [
        73.152,
        0.08,
        10.668
      ]
    },
    {
      "name": "Grove_Envelope_PosX",
      "mesh": 2,
      "translation": [
        56.388,
        -0.03,
        0
      ],
      "scale": [
        39.624,
        0.06,
        158.496
      ]
    },
    {
      "name": "Grove_Envelope_NegX",
      "mesh": 2,
      "translation": [
        -56.388,
        -0.03,
        0
      ],
      "scale": [
        39.624,
        0.06,
        158.496
      ]
    }
  ],
  "buffers": [
    {
      "byteLength": 1224,
      "uri": "data:application/octet-stream;base64,"
    }
  ],
  "bufferViews": [
    {
      "buffer": 0,
      "byteOffset": 0,
      "byteLength": 288,
      "target": 34962
    },
    {
      "buffer": 0,
      "byteOffset": 288,
      "byteLength": 288,
      "target": 34962
    },
    {
      "buffer": 0,
      "byteOffset": 576,
      "byteLength": 384,
      "target": 34962
    },
    {
      "buffer": 0,
      "byteOffset": 960,
      "byteLength": 192,
      "target": 34962
    },
    {
      "buffer": 0,
      "byteOffset": 1152,
      "byteLength": 72,
      "target": 34963
    }
  ],
  "accessors": [
    {
      "bufferView": 0,
      "componentType": 5126,
      "count": 24,
      "type": "VEC3",
      "min": [
        -0.5,
        -0.5,
        -0.5
      ],
      "max": [
        0.5,
        0.5,
        0.5
      ]
    },
    {
      "bufferView": 1,
      "componentType": 5126,
      "count": 24,
      "type": "VEC3",
      "min": [
        -1,
        -1,
        -1
      ],
      "max": [
        1,
        1,
        1
      ]
    },
    {
      "bufferView": 2,
      "componentType": 5126,
      "count": 24,
      "type": "VEC4",
      "min": [
        -1,
        0,
        -1,
        1
      ],
      "max": [
        1,
        0,
        1,
        1
      ]
    },
    {
      "bufferView": 3,
      "componentType": 5126,
      "count": 24,
      "type": "VEC2",
      "min": [
        0,
        0
      ],
      "max": [
        1,
        1
      ]
    },
    {
      "bufferView": 4,
      "componentType": 5123,
      "count": 36,
      "type": "SCALAR",
      "min": [
        0
      ],
      "max": [
        23
      ]
    }
  ],
  "materials": [
    {
      "name": "Lawn_Blockout",
      "pbrMetallicRoughness": {
        "baseColorFactor": [
          0.18,
          0.36,
          0.12,
          1.0
        ],
        "metallicFactor": 0.0,
        "roughnessFactor": 0.95
      },
      "doubleSided": false
    },
    {
      "name": "Gravel_Path_Blockout",
      "pbrMetallicRoughness": {
        "baseColorFactor": [
          0.5,
          0.45,
          0.35,
          1.0
        ],
        "metallicFactor": 0.0,
        "roughnessFactor": 1.0
      },
      "doubleSided": false
    },
    {
      "name": "Tree_Grove_Envelope",
      "pbrMetallicRoughness": {
        "baseColorFactor": [
          0.08,
          0.2,
          0.08,
          1.0
        ],
        "metallicFactor": 0.0,
        "roughnessFactor": 1.0
      },
      "doubleSided": false
    }
  ],
  "meshes": [
    {
      "name": "UnitBox_Lawn",
      "primitives": [
        {
          "attributes": {
            "POSITION": 0,
            "NORMAL": 1,
            "TANGENT": 2,
            "TEXCOORD_0": 3
          },
          "indices": 4,
          "mode": 4,
          "material": 0
        }
      ]
    },
    {
      "name": "UnitBox_Path",
      "primitives": [
        {
          "attributes": {
            "POSITION": 0,
            "NORMAL": 1,
            "TANGENT": 2,
            "TEXCOORD_0": 3
          },
          "indices": 4,
          "mode": 4,
          "material": 1
        }
      ]
    },
    {
      "name": "UnitBox_GroveEnvelope",
      "primitives": [
        {
          "attributes": {
            "POSITION": 0,
            "NORMAL": 1,
            "TANGENT": 2,
            "TEXCOORD_0": 3
          },
          "indices": 4,
          "mode": 4,
          "material": 2
        }
      ]
    }
  ]
}
